<svg width="35" height="29" viewBox="0 0 35 29" fill="none" xmlns="http://www.w3.org/2000/svg">
<rect width="35" height="29" fill="#E5E5E5"/>
<g clip-path="url(#clip0)">
<rect width="1280" height="1958" transform="translate(-300 -444)" fill="white"/>
<path d="M23.3341 17.895L32.872 22.1216C33.7851 22.5264 34.7294 21.6257 34.3702 20.6947L28.503 5.4848C28.2803 4.9074 27.6319 4.62115 27.0559 4.84334L10.3348 11.2935C9.75742 11.5162 9.47116 12.1646 9.69336 12.7406L15.5611 27.9519C15.9202 28.8829 17.2256 28.9141 17.6294 28.003L21.8575 18.4646C22.1073 17.8985 22.7675 17.6438 23.3341 17.895Z" fill="#E55CFF"/>
<path d="M13.7422 2.13532C14.3004 3.26646 15.3782 4.04967 16.6263 4.23029C19.768 4.6863 21.0236 8.54757 18.7494 10.764C17.8463 11.6434 17.4347 12.9122 17.6479 14.1544C18.1839 17.2843 14.9 19.6694 12.0899 18.1919C10.9736 17.6056 9.6411 17.6056 8.52477 18.1919C5.71469 19.6694 2.42935 17.2828 2.96678 14.1544C3.17998 12.9122 2.76839 11.6434 1.86526 10.764C-0.408864 8.54757 0.846644 4.6863 3.98837 4.23029C5.23647 4.04967 6.3143 3.26498 6.87247 2.13532C8.27751 -0.711773 12.3372 -0.711773 13.7422 2.13532Z" fill="#006BFF"/>
<path fill-rule="evenodd" clip-rule="evenodd" d="M19.8574 7.54907C19.9802 8.64635 19.6371 9.80717 18.7203 10.7007C17.8172 11.5801 17.4056 12.8489 17.6188 14.0911C18.1547 17.221 14.8709 19.6062 12.0608 18.1286C11.9433 18.0669 11.8235 18.0117 11.7017 17.963L9.66414 12.6808C9.44194 12.1048 9.7282 11.4564 10.3056 11.2337L19.8574 7.54907Z" fill="#0AE8F0"/>
</g>
<rect x="-636" y="-1037" width="9903" height="4981" stroke="#E55CFF" stroke-width="20"/>
<defs>
<clipPath id="clip0">
<rect width="1280" height="1958" fill="white" transform="translate(-300 -444)"/>
</clipPath>
</defs>
</svg>
