<svg width="29" height="26" viewBox="0 0 29 26" fill="none" xmlns="http://www.w3.org/2000/svg">
<rect width="29" height="26" fill="#E5E5E5"/>
<g clip-path="url(#clip0)">
<rect width="1280" height="1958" transform="translate(-303 -555)" fill="white"/>
<path d="M11.3708 7.17395H8.74912C6.34415 7.17395 4.12143 8.45679 2.91751 10.5403L1.60596 12.8104C0.40348 14.894 0.40348 17.4611 1.60596 19.5432L2.91751 21.8133C4.11999 23.8968 6.34272 25.1796 8.74912 25.1796H11.3708C13.7757 25.1796 15.9985 23.8968 17.2024 21.8133L18.5139 19.5432C19.7164 17.4596 19.7164 14.8925 18.5139 12.8104L17.2024 10.5403C15.9985 8.45679 13.7757 7.17395 11.3708 7.17395Z" fill="#8247F5"/>
<path d="M27.6093 1.09407C25.9821 -0.533154 22.9041 -0.28491 19.7257 1.43846C16.5473 -0.28491 13.4693 -0.533154 11.8421 1.09407C10.2149 2.7213 10.4631 5.79926 12.1865 8.97766C10.4631 12.1561 10.2149 15.234 11.8421 16.8613C13.4693 18.4885 16.5473 18.2402 19.7257 16.5169C22.9041 18.2402 25.9835 18.4885 27.6093 16.8613C29.2365 15.234 28.9883 12.1561 27.2649 8.97766C28.9883 5.79926 29.2365 2.7213 27.6093 1.09407Z" fill="#0AE8F0"/>
<path fill-rule="evenodd" clip-rule="evenodd" d="M19.3981 16.6862C19.4999 15.3552 19.2058 14.0009 18.5159 12.8063L17.2044 10.5362C16.0004 8.45264 13.7777 7.1698 11.3727 7.1698H11.3642C11.5831 7.76104 11.8588 8.36541 12.1885 8.97345C10.4651 12.1519 10.2168 15.2298 11.8441 16.857C13.415 18.428 16.338 18.251 19.3981 16.6862Z" fill="#CCFF00"/>
</g>
<rect x="-639" y="-1148" width="9903" height="4981" stroke="#E55CFF" stroke-width="20"/>
<defs>
<clipPath id="clip0">
<rect width="1280" height="1958" fill="white" transform="translate(-303 -555)"/>
</clipPath>
</defs>
</svg>
