<svg width="31" height="32" viewBox="0 0 31 32" fill="none" xmlns="http://www.w3.org/2000/svg">
<rect width="31" height="32" fill="#E5E5E5"/>
<g clip-path="url(#clip0)">
<rect width="1280" height="1958" transform="translate(-695 -497)" fill="white"/>
<mask id="mask0" mask-type="alpha" maskUnits="userSpaceOnUse" x="0" y="0" width="31" height="32">
<rect x="0.199463" y="0.891479" width="30.4039" height="30.4039" fill="#C4C4C4"/>
</mask>
<g mask="url(#mask0)">
<path d="M6.45218 13.0647L3.05015 19.5504C2.47462 20.6476 2.54324 21.9521 3.20077 22.971L7.18258 29.1346C7.86481 30.1663 9.02609 30.7631 10.2711 30.7219L17.6549 30.3998C18.8999 30.3586 19.9925 29.651 20.5681 28.5538L23.9573 22.0925C24.5328 20.9953 24.4642 19.6909 23.8067 18.6719L19.8249 12.5083C19.1426 11.4767 17.9814 10.8798 16.7364 10.921L9.35256 11.2431C8.13228 11.297 7.01492 11.9919 6.45218 13.0647Z" fill="#E55CFF"/>
<path d="M22.3406 15.9774C22.5654 14.9302 23.3197 14.0497 24.3083 13.6403C26.8371 12.6139 27.0806 9.14279 24.7177 7.77732C23.7682 7.23223 23.1794 6.27404 23.0931 5.18975C22.899 2.47355 19.6516 1.19184 17.6243 3.01395C16.8319 3.74274 15.7178 4.02234 14.6534 3.75954C12.0114 3.13231 9.75401 5.79556 10.8655 8.2815C11.3014 9.27807 11.213 10.4062 10.6552 11.3296C9.21716 13.649 11.0654 16.5721 13.7846 16.3044C14.8712 16.193 15.9301 16.6185 16.6227 17.4354C18.3898 19.4803 21.7757 18.6306 22.3406 15.9774Z" stroke="#0099FF" stroke-width="0.940602" stroke-miterlimit="10"/>
<mask id="mask1" mask-type="alpha" maskUnits="userSpaceOnUse" x="2" y="11" width="23" height="21">
<path d="M6.36994 13.2115L2.88676 19.8519C2.2975 20.9753 2.36776 22.3109 3.04097 23.3541L7.11776 29.6647C7.81627 30.721 9.00524 31.3321 10.2799 31.2899L17.8399 30.9601C19.1145 30.918 20.2333 30.1935 20.8225 29.0701L24.2926 22.4547C24.8819 21.3313 24.8116 19.9957 24.1384 18.9525L20.0616 12.6419C19.3631 11.5856 18.1741 10.9745 16.8995 11.0167L9.3395 11.3465C8.09012 11.4016 6.9461 12.1131 6.36994 13.2115Z" fill="#8347F5"/>
</mask>
<g mask="url(#mask1)">
<path d="M22.3403 15.9802C22.5651 14.933 23.3194 14.0525 24.308 13.6431C26.8369 12.6167 27.0803 9.1456 24.7175 7.78013C23.768 7.23504 23.1792 6.27684 23.0928 5.19256C22.8988 2.47636 19.6513 1.19464 17.624 3.01676C16.8317 3.74555 15.7176 4.02515 14.6532 3.76235C12.0112 3.13512 9.75377 5.79836 10.8653 8.28431C11.3012 9.28088 11.2128 10.409 10.655 11.3324C9.21691 13.6518 11.0651 16.5749 13.7844 16.3072C14.871 16.1958 15.9298 16.6213 16.6225 17.4382C18.3896 19.4831 21.7755 18.6334 22.3403 15.9802Z" stroke="#CCFF00" stroke-width="0.940602" stroke-miterlimit="10"/>
</g>
</g>
</g>
<rect x="-1031" y="-1090" width="9903" height="4981" stroke="#E55CFF" stroke-width="20"/>
<defs>
<clipPath id="clip0">
<rect width="1280" height="1958" fill="white" transform="translate(-695 -497)"/>
</clipPath>
</defs>
</svg>
