<svg width="35" height="34" viewBox="0 0 35 34" fill="none" xmlns="http://www.w3.org/2000/svg">
<rect width="35" height="34" fill="#E5E5E5"/>
<g clip-path="url(#clip0)">
<rect width="1280" height="1958" transform="translate(-301 -492)" fill="white"/>
<mask id="mask0" mask-type="alpha" maskUnits="userSpaceOnUse" x="0" y="0" width="35" height="34">
<rect x="0.756836" y="0.37561" width="33.4532" height="33.4532" fill="#C4C4C4"/>
</mask>
<g mask="url(#mask0)">
<path d="M13.0146 16.4112C15.9156 19.0373 20.4654 19.2885 23.7077 16.6113C26.761 14.104 27.5565 9.67454 25.5923 6.24342C23.5202 2.65711 19.2449 1.25553 15.6013 2.63832C12.6564 0.00439051 8.15048 -0.238962 4.90821 2.4382C1.85488 4.94557 1.05939 9.37499 3.02359 12.8061C5.06985 16.4104 9.35302 17.7681 13.0146 16.4112Z" fill="#FFA600"/>
<path d="M26.2886 32.897L15.7879 33.6031C13.9116 33.7246 12.5412 31.8753 13.2373 30.1294L19.8592 13.1874C20.7757 10.8306 24.1745 11.041 24.7379 13.4959L28.6166 29.7318C28.9867 31.2701 27.8697 32.7936 26.2886 32.897Z" fill="#006BFF"/>
<mask id="mask1" mask-type="alpha" maskUnits="userSpaceOnUse" x="1" y="0" width="26" height="19">
<path d="M13.0146 16.4115C15.9156 19.0375 20.4654 19.2887 23.7077 16.6116C26.761 14.1042 27.5565 9.67478 25.5923 6.24367C23.5202 2.65736 19.2449 1.25577 15.6013 2.63856C12.6564 0.00463465 8.15048 -0.238718 4.90821 2.43844C1.85488 4.94582 1.05939 9.37523 3.02359 12.8063C5.06985 16.4106 9.35302 17.7684 13.0146 16.4115Z" fill="#18E884"/>
</mask>
<g mask="url(#mask1)">
<path d="M26.2886 32.8972L15.7879 33.6033C13.9116 33.7248 12.5412 31.8756 13.2373 30.1296L19.8592 13.1876C20.7757 10.8308 24.1745 11.0413 24.7379 13.4961L28.6166 29.732C28.9867 31.2703 27.8697 32.7939 26.2886 32.8972Z" fill="#CCFF00"/>
</g>
</g>
</g>
<rect x="-637" y="-1085" width="9903" height="4981" stroke="#E55CFF" stroke-width="20"/>
<defs>
<clipPath id="clip0">
<rect width="1280" height="1958" fill="white" transform="translate(-301 -492)"/>
</clipPath>
</defs>
</svg>
