<svg width="28" height="29" viewBox="0 0 28 29" fill="none" xmlns="http://www.w3.org/2000/svg">
<rect width="28" height="29" fill="#E5E5E5"/>
<g clip-path="url(#clip0)">
<rect width="1280" height="1958" transform="translate(-694 -444)" fill="white"/>
<path d="M11.0532 6.024L11.0532 12.2711C11.0532 13.3279 11.6213 14.2908 12.5209 14.8074L17.9654 17.931C18.8886 18.4476 20.0012 18.4476 20.9244 17.931L26.3689 14.8074C27.2921 14.2908 27.8366 13.3279 27.8366 12.2711L27.8366 6.04748C27.8366 4.99065 27.2685 4.02776 26.3689 3.51109L20.9244 0.387559C20.0012 -0.129113 18.8886 -0.129113 17.9654 0.38756L12.5209 3.51109C11.6213 4.02776 11.0532 4.99065 11.0532 6.024Z" fill="#BFB0FF"/>
<path d="M10.1159 10.3695C8.84041 11.6459 6.79524 11.6459 5.51976 10.3695C3.49658 8.32302 -8.16185e-07 9.77538 -6.90177e-07 12.6581L-6.58434e-07 13.3843L-1.74602e-07 24.4531L-1.4286e-07 25.1793C-1.58902e-08 28.084 3.49658 29.5143 5.54175 27.4898C6.81723 26.2135 8.8624 26.2135 10.1379 27.4898C12.1831 29.5363 15.6796 28.084 15.6796 25.2013L15.6796 24.4751L15.6796 13.4063L15.6796 12.6801C15.6576 9.77538 12.1611 8.32301 10.1159 10.3695Z" fill="#CCFF00"/>
<path fill-rule="evenodd" clip-rule="evenodd" d="M11.0508 9.71329L11.0508 12.2716C11.0508 13.3284 11.6189 14.2913 12.5184 14.808L15.6786 16.621L15.6786 13.4119L15.6786 12.6857C15.6597 10.1897 13.0753 8.76612 11.0508 9.71329Z" fill="#0099FF"/>
</g>
<rect x="-1030" y="-1037" width="9903" height="4981" stroke="#E55CFF" stroke-width="20"/>
<defs>
<clipPath id="clip0">
<rect width="1280" height="1958" fill="white" transform="translate(-694 -444)"/>
</clipPath>
</defs>
</svg>
