<svg width="33" height="33" viewBox="0 0 33 33" fill="none" xmlns="http://www.w3.org/2000/svg">
<rect width="33" height="33" fill="#E5E5E5"/>
<g clip-path="url(#clip0)">
<rect width="1280" height="1958" transform="translate(-698 -550)" fill="white"/>
<mask id="mask0" mask-type="alpha" maskUnits="userSpaceOnUse" x="0" y="0" width="33" height="33">
<rect x="0.133545" y="0.00683594" width="32.6047" height="32.6047" fill="#C4C4C4"/>
</mask>
<g mask="url(#mask0)">
<path d="M25.219 24.5515C25.2047 23.1652 24.8339 21.7688 24.1402 20.4885C23.4466 19.2083 22.4518 18.0846 21.2461 17.2191C20.8144 17.9586 20.6754 18.8477 20.8525 19.7357C21.5326 23.1837 17.6494 25.2858 14.6991 23.0669L10.0428 19.5652C9.96623 19.5077 9.89592 19.4455 9.82386 19.3848C9.7518 19.3241 9.66632 19.2824 9.59006 19.2243L9.13554 18.8833C8.47477 19.9292 8.08778 21.1349 8.00468 22.4067C7.92158 23.6784 8.14461 24.9819 8.65641 26.2159C9.16821 27.4498 9.955 28.581 10.9556 29.5213C11.9562 30.4616 13.1437 31.1859 14.4257 31.6377C15.7076 32.0895 17.0496 32.2567 18.3472 32.1263C19.6448 31.9959 20.8631 31.5714 21.9073 30.8858C22.9515 30.2002 23.7935 29.2721 24.3679 28.1735C24.9423 27.0748 25.2335 25.8354 25.219 24.5515Z" fill="#8247F5"/>
<path d="M17.1287 15.2885C18.8026 15.4359 20.4455 16.0558 21.854 17.0715C22.1325 16.5918 22.5246 16.1901 23.0018 15.8959C23.479 15.6016 24.0291 15.4223 24.6119 15.3709C28.0987 15.0607 29.0244 10.7437 26.0788 8.52846L21.4303 5.03191C21.3538 4.97451 21.2744 4.92385 21.1965 4.87234C21.1249 4.81112 21.0543 4.74967 20.9778 4.69228L16.3287 1.19531C13.383 -1.01989 9.50673 1.07911 10.1854 4.52205C10.3873 5.54689 10.1687 6.56636 9.57756 7.35625C8.98641 8.14615 8.07118 8.64179 7.03314 8.73417C3.54639 9.04437 2.61994 13.361 5.56561 15.5762L9.76135 18.7321C10.507 17.5492 11.579 16.6092 12.8713 16.0052C14.1635 15.4011 15.6312 15.1541 17.1287 15.2885Z" fill="#FFA600"/>
<path d="M10.1151 19.3397C10.1868 19.4 10.2567 19.4618 10.3329 19.519L14.9639 23C17.8983 25.2058 21.7601 23.1168 21.084 19.6885C20.9079 18.8057 21.0462 17.922 21.4755 17.1868C20.4989 16.485 19.4056 15.9698 18.2619 15.6722C17.1181 15.3747 15.9477 15.301 14.8216 15.4557C13.6954 15.6103 12.6369 15.9902 11.7103 16.5721C10.7836 17.154 10.008 17.926 9.43052 18.8412L9.88258 19.1802C9.95842 19.2379 10.0368 19.288 10.1151 19.3397Z" fill="#CCF000"/>
</g>
</g>
<rect x="-1034" y="-1143" width="9903" height="4981" stroke="#E55CFF" stroke-width="20"/>
<defs>
<clipPath id="clip0">
<rect width="1280" height="1958" fill="white" transform="translate(-698 -550)"/>
</clipPath>
</defs>
</svg>
