<svg width="552" height="501" viewBox="0 0 552 501" fill="none" xmlns="http://www.w3.org/2000/svg">
<path d="M0 250.463C0 316.781 26.3448 380.383 73.2389 427.277C120.133 474.171 183.735 500.516 250.053 500.516C316.371 500.516 379.973 474.171 426.867 427.277C473.761 380.383 500.106 316.781 500.106 250.463C500.106 184.145 473.761 120.543 426.867 73.6488C379.973 26.7547 316.371 0.409912 250.053 0.409912C183.735 0.409912 120.133 26.7547 73.2389 73.6488C26.3448 120.543 0 184.145 0 250.463V250.463Z" fill="#ECE7FF"/>
<path d="M392.627 367.525H93.1073C86.4755 367.525 80.1153 364.891 75.4259 360.202C70.7365 355.512 68.102 349.152 68.102 342.52V140.365C68.102 134.396 70.473 128.672 74.6935 124.451C78.914 120.231 84.6382 117.86 90.6068 117.86H395.128C401.096 117.86 406.821 120.231 411.041 124.451C415.262 128.672 417.633 134.396 417.633 140.365V342.52C417.633 349.152 414.998 355.512 410.309 360.202C405.619 364.891 399.259 367.525 392.627 367.525Z" fill="#005EF8"/>
<path d="M392.627 367.525H93.1073C86.4755 367.525 80.1153 364.891 75.4259 360.202C70.7365 355.512 68.102 349.152 68.102 342.52V140.365C68.102 134.396 70.473 128.672 74.6935 124.451C78.914 120.231 84.6382 117.86 90.6068 117.86H395.128C401.096 117.86 406.821 120.231 411.041 124.451C415.262 128.672 417.633 134.396 417.633 140.365V342.52C417.633 349.152 414.998 355.512 410.309 360.202C405.619 364.891 399.259 367.525 392.627 367.525Z" stroke="#00152B" stroke-width="2" stroke-linecap="round" stroke-linejoin="round"/>
<path d="M68.102 341.27C68.102 344.718 68.7811 348.132 70.1006 351.317C71.4201 354.503 73.354 357.397 75.7921 359.835C78.2302 362.273 81.1246 364.207 84.31 365.527C87.4955 366.846 90.9097 367.525 94.3576 367.525H391.377C394.825 367.525 398.239 366.846 401.425 365.527C404.61 364.207 407.504 362.273 409.943 359.835C412.381 357.397 414.315 354.503 415.634 351.317C416.953 348.132 417.633 344.718 417.633 341.27V327.579H68.102V341.27Z" fill="white" stroke="#00152B" stroke-width="2" stroke-linecap="round" stroke-linejoin="round"/>
<path d="M272.827 407.478H212.908L217.896 367.525H267.832L272.827 407.478Z" fill="white"/>
<path d="M272.827 407.478H212.908L217.896 367.525H267.832L272.827 407.478Z" stroke="#00152B" stroke-width="2" stroke-linecap="round" stroke-linejoin="round"/>
<path d="M307.778 427.444H177.95C177.96 422.145 180.072 417.067 183.823 413.323C187.573 409.58 192.656 407.478 197.955 407.478H287.805C290.427 407.477 293.025 407.993 295.448 408.996C297.871 409.999 300.073 411.469 301.928 413.324C303.782 415.178 305.254 417.379 306.257 419.802C307.261 422.225 307.778 424.822 307.778 427.444Z" fill="white" stroke="#00152B" stroke-width="2" stroke-linecap="round" stroke-linejoin="round"/>
<path d="M422.602 272.655H162.997C159.022 272.644 155.212 271.059 152.401 268.248C149.59 265.437 148.006 261.628 147.994 257.652V82.9087H437.605V257.652C437.594 261.628 436.009 265.437 433.198 268.248C430.387 271.059 426.578 272.644 422.602 272.655Z" fill="white" stroke="#00152B" stroke-width="2" stroke-linecap="round" stroke-linejoin="round"/>
<path d="M437.605 82.9087H147.994V37.9929C148.006 34.0174 149.59 30.2079 152.401 27.3968C155.212 24.5857 159.022 23.0013 162.997 22.9897H422.602C426.578 23.0013 430.387 24.5857 433.198 27.3968C436.009 30.2079 437.594 34.0174 437.605 37.9929V82.9087Z" fill="white" stroke="#00152B" stroke-width="2" stroke-linecap="round" stroke-linejoin="round"/>
<path d="M167.961 52.9461C167.961 55.5955 169.013 58.1364 170.887 60.0098C172.76 61.8832 175.301 62.9357 177.95 62.9357C180.6 62.9357 183.141 61.8832 185.014 60.0098C186.887 58.1364 187.94 55.5955 187.94 52.9461C187.94 50.2967 186.887 47.7558 185.014 45.8823C183.141 44.0089 180.6 42.9565 177.95 42.9565C175.301 42.9565 172.76 44.0089 170.887 45.8823C169.013 47.7558 167.961 50.2967 167.961 52.9461V52.9461Z" fill="#005EF8" stroke="#00152B" stroke-width="2" stroke-linecap="round" stroke-linejoin="round"/>
<path d="M207.907 52.9461C207.907 55.5955 208.959 58.1364 210.833 60.0098C212.706 61.8832 215.247 62.9357 217.896 62.9357C220.546 62.9357 223.087 61.8832 224.96 60.0098C226.833 58.1364 227.886 55.5955 227.886 52.9461C227.886 50.2967 226.833 47.7558 224.96 45.8823C223.087 44.0089 220.546 42.9565 217.896 42.9565C215.247 42.9565 212.706 44.0089 210.833 45.8823C208.959 47.7558 207.907 50.2967 207.907 52.9461V52.9461Z" fill="#005EF8" stroke="#00152B" stroke-width="2" stroke-linecap="round" stroke-linejoin="round"/>
<path d="M247.859 52.9461C247.859 55.5955 248.911 58.1364 250.785 60.0098C252.658 61.8832 255.199 62.9357 257.848 62.9357C260.498 62.9357 263.039 61.8832 264.912 60.0098C266.786 58.1364 267.838 55.5955 267.838 52.9461C267.838 50.2967 266.786 47.7558 264.912 45.8823C263.039 44.0089 260.498 42.9565 257.848 42.9565C255.199 42.9565 252.658 44.0089 250.785 45.8823C248.911 47.7558 247.859 50.2967 247.859 52.9461Z" fill="#005EF8" stroke="#00152B" stroke-width="2" stroke-linecap="round" stroke-linejoin="round"/>
<path d="M237.876 142.828H277.822V182.774H237.876V142.828Z" fill="#005EF8" stroke="#00152B" stroke-width="2" stroke-linecap="round" stroke-linejoin="round"/>
<path d="M302.783 142.828H342.729V182.774H302.783V142.828Z" fill="#005EF8" stroke="#00152B" stroke-width="2" stroke-linecap="round" stroke-linejoin="round"/>
<path d="M367.697 142.828H407.643V182.774H367.697V142.828Z" fill="#005EF8" stroke="#00152B" stroke-width="2" stroke-linecap="round" stroke-linejoin="round"/>
<path d="M237.876 202.747H277.822V242.693H237.876V202.747Z" fill="#005EF8" stroke="#00152B" stroke-width="2" stroke-linecap="round" stroke-linejoin="round"/>
<path d="M302.783 202.747H342.729V242.693H302.783V202.747Z" fill="#005EF8" stroke="#00152B" stroke-width="2" stroke-linecap="round" stroke-linejoin="round"/>
<path d="M367.697 202.747H407.643V242.693H367.697V202.747Z" fill="#005EF8" stroke="#00152B" stroke-width="2" stroke-linecap="round" stroke-linejoin="round"/>
<path d="M177.95 102.882H217.896V122.855H177.95V102.882Z" fill="#005EF8" stroke="#00152B" stroke-width="2" stroke-linecap="round" stroke-linejoin="round"/>
<path d="M237.876 102.882H407.649V122.855H237.876V102.882Z" fill="#005EF8" stroke="#00152B" stroke-width="2" stroke-linejoin="round"/>
<path d="M177.95 142.828H217.896" stroke="#00152B" stroke-width="2" stroke-linecap="round" stroke-linejoin="round"/>
<path d="M177.95 162.801H217.896" stroke="#00152B" stroke-width="2" stroke-linecap="round" stroke-linejoin="round"/>
<path d="M177.95 182.774H217.896" stroke="#00152B" stroke-width="2" stroke-linecap="round" stroke-linejoin="round"/>
<path d="M177.95 202.747H217.896" stroke="#00152B" stroke-width="2" stroke-linecap="round" stroke-linejoin="round"/>
<path d="M177.95 222.72H217.896" stroke="#00152B" stroke-width="2" stroke-linecap="round" stroke-linejoin="round"/>
<path d="M177.95 242.693H202.918" stroke="#00152B" stroke-width="2" stroke-linecap="round" stroke-linejoin="round"/>
<path d="M502.557 352.01C501.113 357.311 498.181 357.498 496.087 352.428L463.336 273.806C461.223 268.736 463.642 266.304 468.712 268.423L547.316 301.174C552.386 303.287 552.199 306.175 546.904 307.644L521.692 314.52C518.838 315.475 516.244 317.079 514.117 319.208C511.989 321.337 510.386 323.931 509.433 326.786L502.557 352.01Z" fill="white" stroke="#00152B" stroke-width="2" stroke-linejoin="round"/>
<path d="M238.701 347.552C238.701 348.657 239.139 349.716 239.92 350.496C240.701 351.277 241.76 351.716 242.864 351.716C243.968 351.716 245.027 351.277 245.808 350.496C246.589 349.716 247.027 348.657 247.027 347.552C247.027 346.448 246.589 345.389 245.808 344.608C245.027 343.828 243.968 343.389 242.864 343.389C241.76 343.389 240.701 343.828 239.92 344.608C239.139 345.389 238.701 346.448 238.701 347.552Z" fill="#00152B" stroke="#00152B" stroke-width="2" stroke-linecap="round" stroke-linejoin="round"/>
</svg>
