<svg width="501" height="501" viewBox="0 0 501 501" fill="none" xmlns="http://www.w3.org/2000/svg">
<circle cx="250.601" cy="250.577" r="250" fill="#ECE7FF"/>
<path d="M425.827 148.31H404.215C401.603 134.911 396.325 122.175 388.693 110.857L403.983 95.5832C404.715 94.8521 405.296 93.9838 405.693 93.028C406.089 92.0722 406.293 91.0476 406.293 90.0129C406.293 88.9782 406.089 87.9536 405.693 86.9978C405.296 86.042 404.715 85.1737 403.983 84.4425L387.272 67.7261C385.794 66.25 383.791 65.4209 381.702 65.4209C379.613 65.4209 377.609 66.25 376.131 67.7261L360.858 83C349.54 75.3683 336.803 70.0896 323.405 67.4775V45.8661C323.404 43.7764 322.572 41.7728 321.094 40.2956C319.616 38.8185 317.612 37.9887 315.522 37.9887H291.89C289.8 37.9887 287.796 38.8185 286.318 40.2956C284.84 41.7728 284.009 43.7764 284.007 45.8661V67.4775C270.609 70.0896 257.873 75.3683 246.555 83L231.281 67.7261C229.803 66.25 227.799 65.4209 225.71 65.4209C223.622 65.4209 221.618 66.25 220.14 67.7261L203.429 84.4425C202.697 85.1737 202.116 86.042 201.72 86.9978C201.323 87.9536 201.119 88.9782 201.119 90.0129C201.119 91.0476 201.323 92.0722 201.72 93.028C202.116 93.9838 202.697 94.8521 203.429 95.5832L218.698 110.857C211.066 122.175 205.787 134.911 203.175 148.31H181.564C179.474 148.31 177.471 149.14 175.994 150.617C174.516 152.094 173.686 154.098 173.686 156.187V179.825C173.683 180.863 173.886 181.891 174.282 182.851C174.678 183.81 175.259 184.682 175.994 185.416C176.728 186.15 177.599 186.732 178.559 187.128C179.519 187.524 180.547 187.726 181.585 187.724H203.197C205.81 201.123 211.088 213.861 218.719 225.182L203.429 240.428C202.697 241.16 202.116 242.028 201.72 242.984C201.323 243.94 201.119 244.964 201.119 245.999C201.119 247.034 201.323 248.058 201.72 249.014C202.116 249.97 202.697 250.838 203.429 251.569L220.14 268.286C221.618 269.762 223.622 270.591 225.71 270.591C227.799 270.591 229.803 269.762 231.281 268.286L246.555 253.012C257.873 260.643 270.609 265.922 284.007 268.534V290.146C284.007 291.181 284.211 292.205 284.607 293.161C285.004 294.117 285.584 294.986 286.316 295.718C287.048 296.449 287.918 297.029 288.874 297.425C289.83 297.82 290.855 298.024 291.89 298.023H315.522C316.557 298.024 317.582 297.82 318.538 297.425C319.495 297.029 320.364 296.449 321.096 295.718C321.828 294.986 322.409 294.117 322.805 293.161C323.201 292.205 323.405 291.181 323.405 290.146V268.534C336.803 265.922 349.54 260.643 360.858 253.012L376.131 268.286C377.609 269.762 379.613 270.591 381.702 270.591C383.791 270.591 385.794 269.762 387.272 268.286L403.983 251.569C404.715 250.838 405.296 249.97 405.693 249.014C406.089 248.058 406.293 247.034 406.293 245.999C406.293 244.964 406.089 243.94 405.693 242.984C405.296 242.028 404.715 241.16 403.983 240.428L388.715 225.16C396.343 213.846 401.621 201.116 404.237 187.724H425.849C427.937 187.716 429.937 186.88 431.409 185.399C432.881 183.918 433.705 181.913 433.699 179.825V156.187C433.699 154.099 432.87 152.096 431.394 150.619C429.917 149.142 427.915 148.311 425.827 148.31ZM303.706 227.094C292.019 227.094 280.594 223.628 270.876 217.135C261.159 210.642 253.585 201.413 249.113 190.615C244.64 179.817 243.47 167.936 245.751 156.473C248.031 145.01 253.66 134.481 261.924 126.218C270.189 117.954 280.718 112.326 292.181 110.047C303.644 107.767 315.526 108.938 326.323 113.412C337.12 117.885 346.349 125.46 352.841 135.178C359.334 144.896 362.798 156.321 362.797 168.009C362.796 183.68 356.569 198.708 345.488 209.789C334.406 220.869 319.377 227.094 303.706 227.094V227.094Z" fill="#006BFF"/>
<path d="M303.706 227.095C292.019 227.095 280.594 223.629 270.876 217.136C261.158 210.643 253.585 201.413 249.112 190.616C244.64 179.818 243.47 167.936 245.751 156.474C248.031 145.011 253.659 134.482 261.924 126.218C270.189 117.954 280.718 112.327 292.181 110.047C303.644 107.768 315.525 108.939 326.323 113.412C337.12 117.886 346.349 125.46 352.841 135.178C359.333 144.897 362.798 156.322 362.797 168.009C362.795 183.68 356.569 198.709 345.488 209.789C334.406 220.87 319.377 227.095 303.706 227.095V227.095Z" stroke="black" stroke-width="0.96" stroke-linecap="round" stroke-linejoin="round"/>
<path d="M425.827 148.31H404.215C401.603 134.911 396.325 122.175 388.693 110.857L403.983 95.5832C404.715 94.8521 405.296 93.9838 405.693 93.028C406.089 92.0722 406.293 91.0476 406.293 90.0129C406.293 88.9782 406.089 87.9536 405.693 86.9978C405.296 86.042 404.715 85.1737 403.983 84.4425L387.272 67.7261C385.794 66.25 383.791 65.4209 381.702 65.4209C379.613 65.4209 377.609 66.25 376.131 67.7261L360.858 83C349.54 75.3683 336.803 70.0896 323.405 67.4775V45.8661C323.404 43.7764 322.572 41.7728 321.094 40.2956C319.616 38.8185 317.612 37.9887 315.522 37.9887H291.89C289.8 37.9887 287.796 38.8185 286.318 40.2956C284.84 41.7728 284.009 43.7764 284.007 45.8661V67.4775C270.609 70.0896 257.873 75.3683 246.555 83L231.281 67.7261C229.803 66.25 227.799 65.4209 225.71 65.4209C223.622 65.4209 221.618 66.25 220.14 67.7261L203.429 84.4425C202.697 85.1737 202.116 86.042 201.72 86.9978C201.323 87.9536 201.119 88.9782 201.119 90.0129C201.119 91.0476 201.323 92.0722 201.72 93.028C202.116 93.9838 202.697 94.8521 203.429 95.5832L218.698 110.857C211.066 122.175 205.787 134.911 203.175 148.31H181.564C179.474 148.31 177.471 149.14 175.994 150.617C174.516 152.094 173.686 154.098 173.686 156.187V179.825C173.683 180.863 173.886 181.891 174.282 182.851C174.678 183.81 175.259 184.682 175.994 185.416C176.728 186.15 177.599 186.732 178.559 187.128C179.519 187.524 180.547 187.726 181.585 187.724H203.197C205.81 201.123 211.088 213.861 218.719 225.182L203.429 240.428C202.697 241.16 202.116 242.028 201.72 242.984C201.323 243.94 201.119 244.964 201.119 245.999C201.119 247.034 201.323 248.058 201.72 249.014C202.116 249.97 202.697 250.838 203.429 251.569L220.14 268.286C221.618 269.762 223.622 270.591 225.71 270.591C227.799 270.591 229.803 269.762 231.281 268.286L246.555 253.012C257.873 260.643 270.609 265.922 284.007 268.534V290.146C284.007 291.181 284.211 292.205 284.607 293.161C285.004 294.117 285.584 294.986 286.316 295.718C287.048 296.449 287.918 297.029 288.874 297.425C289.83 297.82 290.855 298.024 291.89 298.023H315.522C316.557 298.024 317.582 297.82 318.538 297.425C319.495 297.029 320.364 296.449 321.096 295.718C321.828 294.986 322.409 294.117 322.805 293.161C323.201 292.205 323.405 291.181 323.405 290.146V268.534C336.803 265.922 349.54 260.643 360.858 253.012L376.131 268.286C377.609 269.762 379.613 270.591 381.702 270.591C383.791 270.591 385.794 269.762 387.272 268.286L403.983 251.569C404.715 250.838 405.296 249.97 405.693 249.014C406.089 248.058 406.293 247.034 406.293 245.999C406.293 244.964 406.089 243.94 405.693 242.984C405.296 242.028 404.715 241.16 403.983 240.428L388.715 225.16C396.343 213.846 401.621 201.116 404.237 187.724H425.849C427.937 187.716 429.937 186.88 431.409 185.399C432.881 183.918 433.705 181.913 433.699 179.825V156.187C433.699 154.099 432.87 152.096 431.394 150.619C429.917 149.142 427.915 148.311 425.827 148.31ZM303.706 227.094C292.019 227.094 280.594 223.628 270.876 217.135C261.159 210.642 253.585 201.413 249.113 190.615C244.64 179.817 243.47 167.936 245.751 156.473C248.031 145.01 253.66 134.481 261.924 126.218C270.189 117.954 280.718 112.326 292.181 110.047C303.644 107.767 315.526 108.938 326.323 113.412C337.12 117.885 346.349 125.46 352.841 135.178C359.334 144.896 362.798 156.321 362.797 168.009C362.796 183.68 356.569 198.708 345.488 209.789C334.406 220.869 319.377 227.094 303.706 227.094V227.094Z" stroke="black" stroke-width="0.96" stroke-linecap="round" stroke-linejoin="round"/>
<path d="M425.827 148.31H404.215C401.603 134.911 396.325 122.175 388.693 110.857L403.983 95.5832C404.715 94.8521 405.296 93.9838 405.693 93.028C406.089 92.0722 406.293 91.0476 406.293 90.0129C406.293 88.9782 406.089 87.9536 405.693 86.9978C405.296 86.042 404.715 85.1737 403.983 84.4425L387.272 67.7261C385.794 66.25 383.791 65.4209 381.702 65.4209C379.613 65.4209 377.609 66.25 376.131 67.7261L360.858 83C349.54 75.3683 336.803 70.0896 323.405 67.4775V45.8661C323.404 43.7764 322.572 41.7728 321.094 40.2956C319.616 38.8185 317.612 37.9887 315.522 37.9887H291.89C289.8 37.9887 287.796 38.8185 286.318 40.2956C284.84 41.7728 284.009 43.7764 284.007 45.8661V67.4775C270.609 70.0896 257.873 75.3683 246.555 83L231.281 67.7261C229.803 66.25 227.799 65.4209 225.71 65.4209C223.622 65.4209 221.618 66.25 220.14 67.7261L203.429 84.4425C202.697 85.1737 202.116 86.042 201.72 86.9978C201.323 87.9536 201.119 88.9782 201.119 90.0129C201.119 91.0476 201.323 92.0722 201.72 93.028C202.116 93.9838 202.697 94.8521 203.429 95.5832L218.698 110.857C211.066 122.175 205.787 134.911 203.175 148.31H181.564C179.474 148.31 177.471 149.14 175.994 150.617C174.516 152.094 173.686 154.098 173.686 156.187V179.825C173.683 180.863 173.886 181.891 174.282 182.851C174.678 183.81 175.259 184.682 175.994 185.416C176.728 186.15 177.599 186.732 178.559 187.128C179.519 187.524 180.547 187.726 181.585 187.724H203.197C205.81 201.123 211.088 213.861 218.719 225.182L203.429 240.428C202.697 241.16 202.116 242.028 201.72 242.984C201.323 243.94 201.119 244.964 201.119 245.999C201.119 247.034 201.323 248.058 201.72 249.014C202.116 249.97 202.697 250.838 203.429 251.569L220.14 268.286C221.618 269.762 223.622 270.591 225.71 270.591C227.799 270.591 229.803 269.762 231.281 268.286L246.555 253.012C257.873 260.643 270.609 265.922 284.007 268.534V290.146C284.007 291.181 284.211 292.205 284.607 293.161C285.004 294.117 285.584 294.986 286.316 295.718C287.048 296.449 287.918 297.029 288.874 297.425C289.83 297.82 290.855 298.024 291.89 298.023H315.522C316.557 298.024 317.582 297.82 318.538 297.425C319.495 297.029 320.364 296.449 321.096 295.718C321.828 294.986 322.409 294.117 322.805 293.161C323.201 292.205 323.405 291.181 323.405 290.146V268.534C336.803 265.922 349.54 260.643 360.858 253.012L376.131 268.286C377.609 269.762 379.613 270.591 381.702 270.591C383.791 270.591 385.794 269.762 387.272 268.286L403.983 251.569C404.715 250.838 405.296 249.97 405.693 249.014C406.089 248.058 406.293 247.034 406.293 245.999C406.293 244.964 406.089 243.94 405.693 242.984C405.296 242.028 404.715 241.16 403.983 240.428L388.715 225.16C396.343 213.846 401.621 201.116 404.237 187.724H425.849C427.937 187.716 429.937 186.88 431.409 185.399C432.881 183.918 433.705 181.913 433.699 179.825V156.187C433.699 154.099 432.87 152.096 431.394 150.619C429.917 149.142 427.915 148.311 425.827 148.31ZM303.706 227.094C292.019 227.094 280.594 223.628 270.876 217.135C261.159 210.642 253.585 201.413 249.113 190.615C244.64 179.817 243.47 167.936 245.751 156.473C248.031 145.01 253.66 134.481 261.924 126.218C270.189 117.954 280.718 112.326 292.181 110.047C303.644 107.767 315.526 108.938 326.323 113.412C337.12 117.885 346.349 125.46 352.841 135.178C359.334 144.896 362.798 156.321 362.797 168.009C362.796 183.68 356.569 198.708 345.488 209.789C334.406 220.869 319.377 227.094 303.706 227.094V227.094ZM303.706 227.094C292.019 227.094 280.594 223.628 270.876 217.135C261.159 210.642 253.585 201.413 249.113 190.615C244.64 179.817 243.47 167.936 245.751 156.473C248.031 145.01 253.66 134.481 261.924 126.218C270.189 117.954 280.718 112.326 292.181 110.047C303.644 107.767 315.526 108.938 326.323 113.412C337.12 117.885 346.349 125.46 352.841 135.178C359.334 144.896 362.798 156.321 362.797 168.009C362.796 183.68 356.569 198.708 345.488 209.789C334.406 220.869 319.377 227.094 303.706 227.094V227.094Z" stroke="black" stroke-width="0.96" stroke-linecap="round" stroke-linejoin="round"/>
<path d="M333.295 371.794L317.972 369.633C317.437 359.873 314.949 350.32 310.657 341.538L323.008 332.207C324.199 331.302 324.983 329.959 325.186 328.476C325.388 326.993 324.993 325.49 324.088 324.298L313.877 310.79C312.971 309.6 311.63 308.818 310.148 308.615C308.666 308.412 307.164 308.806 305.972 309.71L293.638 319.014C286.357 312.478 277.837 307.471 268.585 304.291L270.746 288.968C270.951 287.485 270.559 285.981 269.656 284.785C268.754 283.59 267.415 282.802 265.932 282.593L249.15 280.253C247.668 280.049 246.164 280.44 244.97 281.343C243.776 282.245 242.988 283.585 242.78 285.067L240.646 300.395C230.886 300.927 221.332 303.414 212.551 307.711L203.221 295.354C202.313 294.165 200.971 293.383 199.489 293.181C198.007 292.978 196.504 293.371 195.311 294.274L181.804 304.485C180.612 305.391 179.828 306.733 179.626 308.216C179.423 309.7 179.818 311.203 180.723 312.395L190.054 324.751C183.516 332.029 178.507 340.547 175.326 349.799L160.003 347.638C159.269 347.535 158.521 347.578 157.803 347.764C157.086 347.951 156.412 348.277 155.82 348.724C155.228 349.171 154.731 349.73 154.355 350.37C153.98 351.01 153.735 351.717 153.633 352.452L151.294 369.228C151.191 369.962 151.234 370.71 151.42 371.428C151.606 372.147 151.932 372.821 152.379 373.413C152.827 374.005 153.386 374.503 154.026 374.879C154.665 375.255 155.373 375.501 156.108 375.603L171.43 377.764C171.965 387.524 174.452 397.078 178.746 405.859L166.314 415.184C165.122 416.09 164.338 417.432 164.136 418.916C163.933 420.399 164.328 421.902 165.233 423.094L175.445 436.601C176.35 437.793 177.692 438.577 179.176 438.779C180.659 438.982 182.162 438.587 183.354 437.682L195.705 428.351C202.985 434.889 211.505 439.896 220.758 443.074L218.597 458.402C218.391 459.885 218.782 461.389 219.685 462.584C220.588 463.778 221.928 464.565 223.411 464.772L240.192 467.111C240.927 467.214 241.674 467.171 242.392 466.985C243.11 466.798 243.784 466.472 244.376 466.025C244.967 465.578 245.465 465.019 245.84 464.379C246.216 463.739 246.461 463.032 246.562 462.297L248.724 446.975C258.495 446.444 268.059 443.956 276.851 439.659L286.182 452.01C287.087 453.201 288.428 453.983 289.91 454.186C291.392 454.388 292.894 453.994 294.086 453.091L307.593 442.879C308.783 441.972 309.564 440.63 309.767 439.148C309.969 437.665 309.576 436.163 308.674 434.97L299.338 422.619C305.878 415.34 310.887 406.82 314.066 397.566L329.388 399.7C330.123 399.803 330.871 399.76 331.589 399.574C332.307 399.387 332.982 399.061 333.574 398.614C334.166 398.167 334.664 397.608 335.04 396.968C335.415 396.328 335.662 395.621 335.764 394.886L338.098 378.137C338.298 376.66 337.905 375.163 337.005 373.974C336.105 372.786 334.771 372.002 333.295 371.794V371.794ZM238.815 415.638C230.519 414.482 222.752 410.892 216.496 405.322C210.24 399.753 205.776 392.453 203.669 384.346C201.561 376.239 201.905 367.689 204.657 359.778C207.408 351.867 212.444 344.949 219.127 339.899C225.81 334.849 233.84 331.895 242.202 331.409C250.564 330.923 258.883 332.927 266.106 337.169C273.329 341.41 279.132 347.698 282.781 355.238C286.431 362.777 287.762 371.229 286.608 379.526C285.843 385.036 284 390.341 281.184 395.139C278.367 399.936 274.633 404.132 270.195 407.485C265.756 410.839 260.7 413.285 255.316 414.684C249.932 416.083 244.324 416.407 238.815 415.638V415.638Z" fill="white"/>
<path d="M238.814 415.638C230.518 414.482 222.751 410.892 216.495 405.322C210.239 399.752 205.776 392.452 203.668 384.346C201.561 376.239 201.905 367.689 204.656 359.778C207.408 351.866 212.443 344.948 219.126 339.899C225.809 334.849 233.84 331.894 242.202 331.408C250.564 330.923 258.882 332.927 266.105 337.168C273.328 341.41 279.131 347.698 282.781 355.237C286.43 362.777 287.762 371.229 286.608 379.525C285.843 385.035 284 390.341 281.183 395.138C278.367 399.936 274.633 404.131 270.194 407.485C265.756 410.839 260.7 413.285 255.316 414.684C249.931 416.083 244.324 416.407 238.814 415.638V415.638Z" stroke="black" stroke-width="0.96" stroke-linecap="round" stroke-linejoin="round"/>
<path d="M333.295 371.794L317.972 369.633C317.437 359.873 314.949 350.32 310.657 341.538L323.008 332.207C324.199 331.302 324.983 329.959 325.186 328.476C325.388 326.993 324.993 325.49 324.088 324.298L313.877 310.79C312.971 309.6 311.63 308.818 310.148 308.615C308.666 308.412 307.164 308.806 305.972 309.71L293.638 319.014C286.357 312.478 277.837 307.471 268.585 304.291L270.746 288.968C270.951 287.485 270.559 285.981 269.656 284.785C268.754 283.59 267.415 282.802 265.932 282.593L249.15 280.253C247.668 280.049 246.164 280.44 244.97 281.343C243.776 282.245 242.988 283.585 242.78 285.067L240.646 300.395C230.886 300.927 221.332 303.414 212.551 307.711L203.221 295.354C202.313 294.165 200.971 293.383 199.489 293.181C198.007 292.978 196.504 293.371 195.311 294.274L181.804 304.485C180.612 305.391 179.828 306.733 179.626 308.216C179.423 309.7 179.818 311.203 180.723 312.395L190.054 324.751C183.516 332.029 178.507 340.547 175.326 349.799L160.003 347.638C159.269 347.535 158.521 347.578 157.803 347.764C157.086 347.951 156.412 348.277 155.82 348.724C155.228 349.171 154.731 349.73 154.355 350.37C153.98 351.01 153.735 351.717 153.633 352.452L151.294 369.228C151.191 369.962 151.234 370.71 151.42 371.428C151.606 372.147 151.932 372.821 152.379 373.413C152.827 374.005 153.386 374.503 154.026 374.879C154.665 375.255 155.373 375.501 156.108 375.603L171.43 377.764C171.965 387.524 174.452 397.078 178.746 405.859L166.314 415.184C165.122 416.09 164.338 417.432 164.136 418.916C163.933 420.399 164.328 421.902 165.233 423.094L175.445 436.601C176.35 437.793 177.692 438.577 179.176 438.779C180.659 438.982 182.162 438.587 183.354 437.682L195.705 428.351C202.985 434.889 211.505 439.896 220.758 443.074L218.597 458.402C218.391 459.885 218.782 461.389 219.685 462.584C220.588 463.778 221.928 464.565 223.411 464.772L240.192 467.111C240.927 467.214 241.674 467.171 242.392 466.985C243.11 466.798 243.784 466.472 244.376 466.025C244.967 465.578 245.465 465.019 245.84 464.379C246.216 463.739 246.461 463.032 246.562 462.297L248.724 446.975C258.495 446.444 268.059 443.956 276.851 439.659L286.182 452.01C287.087 453.201 288.428 453.983 289.91 454.186C291.392 454.388 292.894 453.994 294.086 453.091L307.593 442.879C308.783 441.972 309.564 440.63 309.767 439.148C309.969 437.665 309.576 436.163 308.674 434.97L299.338 422.619C305.878 415.34 310.887 406.82 314.066 397.566L329.388 399.7C330.123 399.803 330.871 399.76 331.589 399.574C332.307 399.387 332.982 399.061 333.574 398.614C334.166 398.167 334.664 397.608 335.04 396.968C335.415 396.328 335.662 395.621 335.764 394.886L338.098 378.137C338.298 376.66 337.905 375.163 337.005 373.974C336.105 372.786 334.771 372.002 333.295 371.794V371.794ZM238.815 415.638C230.519 414.482 222.752 410.892 216.496 405.322C210.24 399.753 205.776 392.453 203.669 384.346C201.561 376.239 201.905 367.689 204.657 359.778C207.408 351.867 212.444 344.949 219.127 339.899C225.81 334.849 233.84 331.895 242.202 331.409C250.564 330.923 258.883 332.927 266.106 337.169C273.329 341.41 279.132 347.698 282.781 355.238C286.431 362.777 287.762 371.229 286.608 379.526C285.843 385.036 284 390.341 281.184 395.139C278.367 399.936 274.633 404.132 270.195 407.485C265.756 410.839 260.7 413.285 255.316 414.684C249.932 416.083 244.324 416.407 238.815 415.638V415.638Z" stroke="black" stroke-width="0.96" stroke-linecap="round" stroke-linejoin="round"/>
<path d="M185.118 263.045L172.378 262.467C171.196 254.492 168.421 246.835 164.22 239.953L173.637 231.352C174.089 230.94 174.455 230.443 174.714 229.889C174.973 229.336 175.121 228.737 175.149 228.126C175.176 227.515 175.083 226.905 174.875 226.331C174.667 225.756 174.347 225.228 173.934 224.777L164.517 214.468C164.106 214.017 163.609 213.651 163.056 213.392C162.503 213.133 161.904 212.985 161.294 212.957C160.684 212.93 160.074 213.023 159.5 213.231C158.926 213.439 158.398 213.759 157.947 214.171L148.525 222.772C142.043 217.965 134.66 214.513 126.816 212.62L127.394 199.88C127.448 198.647 127.011 197.443 126.179 196.531C125.346 195.619 124.186 195.075 122.953 195.018L109.008 194.391C108.398 194.362 107.787 194.454 107.212 194.661C106.637 194.869 106.108 195.187 105.656 195.6C105.204 196.012 104.839 196.509 104.579 197.063C104.32 197.616 104.173 198.216 104.146 198.827L103.584 211.567C95.6086 212.751 87.9526 215.525 81.0701 219.725L72.4796 210.308C71.6466 209.397 70.4863 208.855 69.2534 208.799C68.0206 208.743 66.816 209.179 65.9043 210.011L55.5956 219.428C54.685 220.261 54.1423 221.421 54.0865 222.654C54.0308 223.887 54.4667 225.092 55.2985 226.003L63.8998 235.42C59.0968 241.897 55.6428 249.272 53.7424 257.107L41.0079 256.535C40.3973 256.506 39.7871 256.599 39.2122 256.806C38.6373 257.014 38.1089 257.333 37.6573 257.745C37.2057 258.157 36.8398 258.654 36.5803 259.207C36.3209 259.761 36.1731 260.36 36.1453 260.971L35.5078 274.915C35.4795 275.526 35.5718 276.136 35.7794 276.711C35.9871 277.286 36.306 277.814 36.7179 278.266C37.1299 278.717 37.6268 279.083 38.1803 279.343C38.7337 279.602 39.3329 279.75 39.9435 279.778L52.6835 280.351C53.8678 288.326 56.6421 295.982 60.8418 302.864L51.4354 311.449C50.5248 312.282 49.9821 313.443 49.9263 314.676C49.8706 315.908 50.3065 317.113 51.1383 318.025L60.5555 328.333C61.3884 329.244 62.5488 329.787 63.7816 329.842C65.0145 329.898 66.219 329.462 67.1307 328.631L76.5695 320.045C83.0459 324.848 90.4207 328.302 98.2566 330.203L97.6407 342.943C97.6116 343.553 97.7034 344.164 97.9108 344.739C98.1182 345.314 98.4371 345.843 98.8491 346.295C99.2612 346.747 99.7584 347.113 100.312 347.372C100.866 347.631 101.466 347.778 102.076 347.805L116.021 348.437C117.255 348.492 118.459 348.055 119.371 347.222C120.282 346.39 120.826 345.229 120.884 343.996L121.456 331.262C129.432 330.075 137.088 327.299 143.97 323.098L152.599 332.521C153.432 333.431 154.592 333.974 155.825 334.03C157.058 334.085 158.262 333.65 159.174 332.818L169.499 323.39C170.409 322.558 170.952 321.398 171.007 320.166C171.063 318.934 170.627 317.731 169.796 316.82L161.173 307.397C165.977 300.921 169.431 293.547 171.33 285.71L184.07 286.288C184.681 286.317 185.292 286.224 185.867 286.016C186.442 285.808 186.971 285.489 187.423 285.076C187.874 284.664 188.24 284.166 188.499 283.612C188.758 283.058 188.906 282.458 188.933 281.847L189.565 267.902C189.619 266.669 189.181 265.464 188.347 264.553C187.513 263.642 186.352 263.1 185.118 263.045ZM110.964 306.268C104.068 305.957 97.4194 303.607 91.8587 299.517C86.298 295.427 82.075 289.779 79.7239 283.289C77.3727 276.799 76.9989 269.757 78.6498 263.054C80.3007 256.352 83.902 250.289 88.9985 245.633C94.0949 240.977 100.458 237.937 107.282 236.897C114.106 235.857 121.085 236.864 127.337 239.791C133.589 242.718 138.833 247.433 142.405 253.339C145.977 259.246 147.718 266.08 147.406 272.976C147.201 277.555 146.095 282.05 144.153 286.202C142.21 290.355 139.468 294.084 136.084 297.176C132.7 300.269 128.74 302.665 124.43 304.227C120.119 305.788 115.544 306.486 110.964 306.279V306.268Z" fill="white"/>
<path d="M110.965 306.279C104.069 305.967 97.4202 303.618 91.8595 299.528C86.2988 295.437 82.0759 289.79 79.7247 283.3C77.3735 276.809 76.9997 269.768 78.6506 263.065C80.3015 256.362 83.9028 250.3 88.9993 245.644C94.0957 240.988 100.458 237.948 107.283 236.908C114.107 235.868 121.086 236.875 127.338 239.802C133.59 242.728 138.834 247.443 142.406 253.35C145.978 259.257 147.719 266.09 147.407 272.986C147.2 277.565 146.094 282.059 144.151 286.21C142.207 290.361 139.465 294.089 136.081 297.18C132.697 300.272 128.738 302.666 124.428 304.228C120.119 305.789 115.544 306.486 110.965 306.279V306.279Z" stroke="black" stroke-width="0.96" stroke-linecap="round" stroke-linejoin="round"/>
<path d="M185.118 263.045L172.378 262.467C171.196 254.492 168.421 246.835 164.22 239.953L173.637 231.352C174.089 230.94 174.455 230.443 174.714 229.889C174.973 229.336 175.121 228.737 175.149 228.126C175.176 227.515 175.083 226.905 174.875 226.331C174.667 225.756 174.347 225.228 173.934 224.777L164.517 214.468C164.106 214.017 163.609 213.651 163.056 213.392C162.503 213.133 161.904 212.985 161.294 212.957C160.684 212.93 160.074 213.023 159.5 213.231C158.926 213.439 158.398 213.759 157.947 214.171L148.525 222.772C142.043 217.965 134.66 214.513 126.816 212.62L127.394 199.88C127.448 198.647 127.011 197.443 126.179 196.531C125.346 195.619 124.186 195.075 122.953 195.018L109.008 194.391C108.398 194.362 107.787 194.454 107.212 194.661C106.637 194.869 106.108 195.187 105.656 195.6C105.204 196.012 104.839 196.509 104.579 197.063C104.32 197.616 104.173 198.216 104.146 198.827L103.584 211.567C95.6086 212.751 87.9526 215.525 81.0701 219.725L72.4796 210.308C71.6466 209.397 70.4863 208.855 69.2534 208.799C68.0206 208.743 66.816 209.179 65.9043 210.011L55.5956 219.428C54.685 220.261 54.1423 221.421 54.0865 222.654C54.0308 223.887 54.4667 225.092 55.2985 226.003L63.8998 235.42C59.0968 241.897 55.6428 249.272 53.7424 257.107L41.0079 256.535C40.3973 256.506 39.7871 256.599 39.2122 256.806C38.6373 257.014 38.1089 257.333 37.6573 257.745C37.2057 258.157 36.8398 258.654 36.5803 259.207C36.3209 259.761 36.1731 260.36 36.1453 260.971L35.5078 274.915C35.4795 275.526 35.5718 276.136 35.7794 276.711C35.9871 277.286 36.306 277.814 36.7179 278.266C37.1299 278.717 37.6268 279.083 38.1803 279.343C38.7337 279.602 39.3329 279.75 39.9435 279.778L52.6835 280.351C53.8678 288.326 56.6421 295.982 60.8418 302.864L51.4354 311.449C50.5248 312.282 49.9821 313.443 49.9263 314.676C49.8706 315.908 50.3065 317.113 51.1383 318.025L60.5555 328.333C61.3884 329.244 62.5488 329.787 63.7816 329.842C65.0145 329.898 66.219 329.462 67.1307 328.631L76.5695 320.045C83.0459 324.848 90.4207 328.302 98.2566 330.203L97.6407 342.943C97.6116 343.553 97.7034 344.164 97.9108 344.739C98.1182 345.314 98.4371 345.843 98.8491 346.295C99.2612 346.747 99.7584 347.113 100.312 347.372C100.866 347.631 101.466 347.778 102.076 347.805L116.021 348.437C117.255 348.492 118.459 348.055 119.371 347.222C120.282 346.39 120.826 345.229 120.884 343.996L121.456 331.262C129.432 330.075 137.088 327.299 143.97 323.098L152.599 332.521C153.432 333.431 154.592 333.974 155.825 334.03C157.058 334.085 158.262 333.65 159.174 332.818L169.499 323.39C170.409 322.558 170.952 321.398 171.007 320.166C171.063 318.934 170.627 317.731 169.796 316.82L161.173 307.397C165.977 300.921 169.431 293.547 171.33 285.71L184.07 286.288C184.681 286.317 185.292 286.224 185.867 286.016C186.442 285.808 186.971 285.489 187.423 285.076C187.874 284.664 188.24 284.166 188.499 283.612C188.758 283.058 188.906 282.458 188.933 281.847L189.565 267.902C189.619 266.669 189.181 265.464 188.347 264.553C187.513 263.642 186.352 263.1 185.118 263.045ZM110.964 306.268C104.068 305.957 97.4194 303.607 91.8587 299.517C86.298 295.427 82.075 289.779 79.7239 283.289C77.3727 276.799 76.9989 269.757 78.6498 263.054C80.3007 256.352 83.902 250.289 88.9985 245.633C94.0949 240.977 100.458 237.937 107.282 236.897C114.106 235.857 121.085 236.864 127.337 239.791C133.589 242.718 138.833 247.433 142.405 253.339C145.977 259.246 147.718 266.08 147.406 272.976C147.201 277.555 146.095 282.05 144.153 286.202C142.21 290.355 139.468 294.084 136.084 297.176C132.7 300.269 128.74 302.665 124.43 304.227C120.119 305.788 115.544 306.486 110.964 306.279V306.268Z" stroke="black" stroke-width="0.96" stroke-linecap="round" stroke-linejoin="round"/>
</svg>
