<svg width="501" height="515" viewBox="0 0 501 515" fill="none" xmlns="http://www.w3.org/2000/svg">
<circle cx="250.625" cy="264.378" r="250" fill="#ECE7FF"/>
<path d="M192.907 137.378L148.079 168.404" stroke="black" stroke-width="1.4" stroke-miterlimit="5.6" stroke-linecap="round" stroke-linejoin="round"/>
<path d="M276.961 433.533H223.728" stroke="black" stroke-width="1.4" stroke-miterlimit="5.6" stroke-linecap="round" stroke-linejoin="round"/>
<path d="M97.0862 294.2L112.216 347.79" stroke="black" stroke-width="1.4" stroke-miterlimit="5.6" stroke-linecap="round" stroke-linejoin="round"/>
<path d="M163.769 219.174H196.27" stroke="black" stroke-width="1.4" stroke-miterlimit="5.6" stroke-linecap="round" stroke-linejoin="round"/>
<path d="M213.08 207.891L231.012 154.302" stroke="black" stroke-width="1.4" stroke-miterlimit="5.6" stroke-linecap="round" stroke-linejoin="round"/>
<path d="M186.743 286.302L204.675 233.841" stroke="black" stroke-width="1.4" stroke-miterlimit="5.6" stroke-linecap="round" stroke-linejoin="round"/>
<path d="M166.009 347.79L177.776 312.816" stroke="black" stroke-width="1.4" stroke-miterlimit="5.6" stroke-linecap="round" stroke-linejoin="round"/>
<path d="M308.342 137.378L353.17 168.404" stroke="black" stroke-width="1.4" stroke-miterlimit="5.6" stroke-linecap="round" stroke-linejoin="round"/>
<path d="M404.162 294.2L388.472 347.79" stroke="black" stroke-width="1.4" stroke-miterlimit="5.6" stroke-linecap="round" stroke-linejoin="round"/>
<path d="M168.813 299.84C168.813 307.738 174.977 313.943 182.822 313.943C190.667 313.943 196.831 307.738 196.831 299.84C196.831 291.943 190.667 285.738 182.822 285.738C174.977 285.738 168.813 291.943 168.813 299.84Z" fill="white" stroke="black" stroke-width="1.4" stroke-miterlimit="5.6" stroke-linecap="round" stroke-linejoin="round"/>
<path d="M196.27 221.43C196.27 229.328 202.434 235.533 209.719 235.533C217.564 235.533 223.728 229.328 223.728 221.994C223.728 214.097 217.564 207.892 210.279 207.892C202.434 207.327 196.27 213.533 196.27 221.43Z" fill="white" stroke="black" stroke-width="1.4" stroke-miterlimit="5.6" stroke-linecap="round" stroke-linejoin="round"/>
<path d="M277.522 219.174H223.728" stroke="black" stroke-width="1.4" stroke-miterlimit="5.6" stroke-linecap="round" stroke-linejoin="round"/>
<path d="M337.479 219.174H304.978" stroke="black" stroke-width="1.4" stroke-miterlimit="5.6" stroke-linecap="round" stroke-linejoin="round"/>
<path d="M276.961 221.43C276.961 229.328 283.125 235.533 290.409 235.533C298.254 235.533 304.418 229.328 304.418 221.994C304.418 214.097 298.255 207.892 290.97 207.892C283.125 207.327 276.961 213.533 276.961 221.43Z" stroke="#4550E5" stroke-width="1.96" stroke-miterlimit="5.6" stroke-linecap="round" stroke-linejoin="round"/>
<path d="M236.615 350.045C236.615 357.942 242.779 364.147 250.624 364.147C258.469 364.147 264.633 357.942 264.633 350.045C264.633 342.147 258.469 336.506 250.624 336.506C242.779 336.506 236.615 342.147 236.615 350.045Z" fill="white" stroke="black" stroke-width="1.4" stroke-miterlimit="5.6" stroke-linecap="round" stroke-linejoin="round"/>
<path d="M287.607 207.891L269.676 154.302" stroke="black" stroke-width="1.4" stroke-miterlimit="5.6" stroke-linecap="round" stroke-linejoin="round"/>
<path d="M314.505 286.302L296.573 233.841" stroke="black" stroke-width="1.4" stroke-miterlimit="5.6" stroke-linecap="round" stroke-linejoin="round"/>
<path d="M334.678 347.79L322.91 312.816" stroke="black" stroke-width="1.4" stroke-miterlimit="5.6" stroke-linecap="round" stroke-linejoin="round"/>
<path d="M304.418 299.84C304.418 307.738 310.582 313.943 318.427 313.943C326.272 313.943 332.436 307.738 332.436 299.84C332.436 291.943 326.272 285.738 318.427 285.738C310.582 285.738 304.418 291.943 304.418 299.84Z" fill="white" stroke="black" stroke-width="1.4" stroke-miterlimit="5.6" stroke-linecap="round" stroke-linejoin="round"/>
<path d="M276.961 221.43C276.961 229.328 283.125 235.533 290.409 235.533C298.254 235.533 304.418 229.328 304.418 221.994C304.418 214.097 298.255 207.892 290.97 207.892C283.125 207.327 276.961 213.533 276.961 221.43Z" fill="white" stroke="black" stroke-width="1.4" stroke-miterlimit="5.6" stroke-linecap="round" stroke-linejoin="round"/>
<path d="M261.832 357.944L292.651 380.508" stroke="black" stroke-width="1.4" stroke-miterlimit="5.6" stroke-linecap="round" stroke-linejoin="round"/>
<path d="M193.469 307.738L239.418 341.584" stroke="black" stroke-width="1.4" stroke-miterlimit="5.6" stroke-linecap="round" stroke-linejoin="round"/>
<path d="M140.234 268.25L171.614 291.378" stroke="black" stroke-width="1.4" stroke-miterlimit="5.6" stroke-linecap="round" stroke-linejoin="round"/>
<path d="M239.417 357.944L208.597 380.508" stroke="black" stroke-width="1.4" stroke-miterlimit="5.6" stroke-linecap="round" stroke-linejoin="round"/>
<path d="M307.22 307.738L261.271 341.584" stroke="black" stroke-width="1.4" stroke-miterlimit="5.6" stroke-linecap="round" stroke-linejoin="round"/>
<path d="M361.014 268.25L329.634 291.378" stroke="black" stroke-width="1.4" stroke-miterlimit="5.6" stroke-linecap="round" stroke-linejoin="round"/>
<path d="M192.347 42.0444V93.9421C192.347 96.1985 193.468 97.8908 195.149 99.5831L247.262 134.558C248.383 135.122 249.503 135.686 250.624 135.686V38.6598H192.907C192.347 39.788 192.347 40.9162 192.347 42.0444Z" fill="#F0F2FF"/>
<path d="M250.624 135.686C251.745 135.686 253.426 135.122 253.986 134.558L306.1 99.5831C307.781 98.4549 308.901 96.1985 308.901 93.9421V42.0444C308.901 40.9162 308.341 39.788 307.781 38.6598H250.624V135.686Z" fill="#006BFF"/>
<path d="M250.625 78.1474L308.341 39.2242C307.781 38.096 307.221 37.5319 306.1 36.9677L253.987 1.99324C251.745 0.30092 248.944 0.30092 246.702 1.99324L194.589 36.9677C194.029 37.5319 193.468 38.096 192.908 39.2242L250.625 78.1474Z" fill="white"/>
<path d="M253.985 1.99324C251.744 0.30092 248.942 0.30092 246.701 1.99324L194.588 36.9677C192.907 38.096 191.786 40.3524 191.786 42.6088V93.9423C191.786 96.1988 192.907 97.8911 194.588 99.5834L246.701 134.558C248.942 136.25 251.744 136.25 253.985 134.558L306.099 99.5834C307.78 98.4552 308.9 96.1988 308.9 93.9423V42.0447C308.9 39.7883 307.78 38.096 306.099 36.4036L253.985 1.99324Z" stroke="black" stroke-width="1.4" stroke-miterlimit="5.6" stroke-linecap="round" stroke-linejoin="round"/>
<path d="M192.908 39.224L250.625 78.1472L308.341 39.224" stroke="black" stroke-width="1.4" stroke-miterlimit="5.6" stroke-linecap="round" stroke-linejoin="round"/>
<path d="M250.624 78.1475V135.686" stroke="black" stroke-width="1.4" stroke-miterlimit="5.6" stroke-linecap="round" stroke-linejoin="round"/>
<path d="M367.179 184.764V236.661C367.179 238.918 368.3 240.61 369.981 242.302L422.094 277.277C423.215 277.841 424.336 278.405 425.457 278.405V181.379H368.3C367.74 182.507 367.179 183.636 367.179 184.764Z" fill="#F0F2FF"/>
<path d="M425.456 277.841C426.577 277.841 428.258 277.277 428.818 276.713L480.932 241.738C482.613 240.61 483.733 238.354 483.733 236.097V184.2C483.733 183.072 483.173 181.943 482.613 180.815H425.456V277.841Z" fill="#006BFF"/>
<path d="M425.455 220.303L483.171 181.38C482.611 180.251 482.051 179.687 480.93 179.123L429.377 144.713C427.136 143.02 424.334 143.02 422.092 144.713L369.979 179.687C368.859 180.251 368.298 181.38 367.738 181.944L425.455 220.303Z" fill="white"/>
<path d="M429.379 144.713C427.138 143.02 424.336 143.02 422.094 144.713L369.981 179.687C368.3 180.815 367.179 183.072 367.179 185.328V237.226C367.179 239.482 368.3 241.175 369.981 242.867L422.094 277.841C424.336 279.534 427.138 279.534 429.379 277.841L481.492 242.867C483.173 241.739 484.294 239.482 484.294 237.226V185.328C484.294 183.072 483.173 181.38 481.492 179.687L429.379 144.713Z" stroke="black" stroke-width="1.4" stroke-miterlimit="5.6" stroke-linecap="round" stroke-linejoin="round"/>
<path d="M368.299 181.944L426.016 220.867L483.733 181.944" stroke="black" stroke-width="1.4" stroke-miterlimit="5.6" stroke-linecap="round" stroke-linejoin="round"/>
<path d="M425.456 220.301V277.839" stroke="black" stroke-width="1.4" stroke-miterlimit="5.6" stroke-linecap="round" stroke-linejoin="round"/>
<path d="M305.539 400.25V452.148C305.539 454.404 306.66 456.096 308.341 457.789L360.454 492.763C361.575 493.327 362.695 493.891 363.816 493.891V396.865H306.66C306.099 397.429 305.539 399.122 305.539 400.25Z" fill="#F0F2FF"/>
<path d="M363.815 493.329C364.936 493.329 366.617 492.765 367.178 492.201L419.291 457.226C420.972 456.098 422.093 453.842 422.093 451.585V399.688C422.093 398.56 421.532 397.431 420.972 396.303H363.815V493.329Z" fill="#006BFF"/>
<path d="M363.816 435.789L421.533 396.865C420.972 395.737 420.412 395.173 419.291 394.609L367.178 359.634C364.937 357.942 362.135 357.942 359.893 359.634L307.78 394.609C306.66 395.173 306.099 396.301 305.539 396.865L363.816 435.789Z" fill="white"/>
<path d="M367.178 359.634C364.936 357.942 362.135 357.942 359.893 359.634L307.78 394.609C306.099 395.737 304.978 397.994 304.978 400.25V452.148C304.978 454.404 306.099 456.096 307.78 457.789L359.893 492.763C362.135 494.455 364.936 494.455 367.178 492.763L419.291 457.789C420.972 456.66 422.093 454.404 422.093 452.148V400.25C422.093 397.994 420.972 396.301 419.291 394.609L367.178 359.634Z" stroke="black" stroke-width="1.4" stroke-miterlimit="5.6" stroke-linecap="round" stroke-linejoin="round"/>
<path d="M306.099 397.429L363.816 436.353L421.533 397.429" stroke="black" stroke-width="1.4" stroke-miterlimit="5.6" stroke-linecap="round" stroke-linejoin="round"/>
<path d="M363.815 435.791V493.329" stroke="black" stroke-width="1.4" stroke-miterlimit="5.6" stroke-linecap="round" stroke-linejoin="round"/>
<path d="M16.9556 184.764V236.661C16.9556 238.918 18.0763 240.61 19.7573 242.302L71.8705 277.277C72.9912 277.841 74.1119 278.405 75.2327 278.405V181.379H18.0763C17.5159 182.507 16.9556 183.636 16.9556 184.764Z" fill="#F0F2FF"/>
<path d="M75.2324 277.841C76.3531 277.841 78.0342 277.277 78.5946 276.713L130.708 241.738C132.389 240.61 133.51 238.354 133.51 236.097V184.2C133.51 183.072 132.949 181.943 132.389 180.815H75.2324V277.841Z" fill="#006BFF"/>
<path d="M75.2324 220.303L132.949 181.38C132.389 180.251 131.828 179.687 130.708 179.123L79.1549 144.713C76.9134 143.02 74.1116 143.02 71.8702 144.713L19.7571 179.123C18.6363 179.687 18.076 180.815 17.5156 181.38L75.2324 220.303Z" fill="white"/>
<path d="M79.1551 144.713C76.9137 143.02 74.1119 143.02 71.8705 144.713L19.7573 179.123C18.0763 180.251 16.9556 182.508 16.9556 184.764V236.662C16.9556 238.918 18.0763 240.611 19.7573 242.303L71.8705 277.277C74.1119 278.97 76.9137 278.97 79.1551 277.277L131.268 242.303C132.949 241.175 134.07 238.918 134.07 236.662V184.764C134.07 182.508 132.949 180.815 131.268 179.123L79.1551 144.713Z" stroke="black" stroke-width="1.4" stroke-miterlimit="5.6" stroke-linecap="round" stroke-linejoin="round"/>
<path d="M17.5156 181.944L75.2324 220.867L132.949 181.944" stroke="black" stroke-width="1.4" stroke-miterlimit="5.6" stroke-linecap="round" stroke-linejoin="round"/>
<path d="M75.2324 220.301V277.839" stroke="black" stroke-width="1.4" stroke-miterlimit="5.6" stroke-linecap="round" stroke-linejoin="round"/>
<path d="M78.5942 400.25V452.148C78.5942 454.404 79.715 456.096 81.396 457.789L133.509 492.763C134.63 493.327 135.751 493.891 136.871 493.891V396.865H79.715C79.1546 397.429 78.5942 399.122 78.5942 400.25Z" fill="#F0F2FF"/>
<path d="M136.873 493.329C137.993 493.329 139.674 492.765 140.235 492.201L192.348 457.226C194.029 456.098 195.15 453.842 195.15 451.585V399.688C195.15 398.56 194.589 397.431 194.029 396.303H136.873V493.329Z" fill="#006BFF"/>
<path d="M136.871 435.789L194.588 396.865C194.028 395.737 193.467 395.173 192.347 394.609L140.233 359.634C137.992 357.942 135.19 357.942 132.949 359.634L81.396 394.609C80.2753 395.173 79.7149 396.301 79.1545 396.865L136.871 435.789Z" fill="white"/>
<path d="M140.794 359.634C138.552 357.942 135.751 357.942 133.509 359.634L81.396 394.609C79.715 395.737 78.5942 397.994 78.5942 400.25V452.148C78.5942 454.404 79.715 456.096 81.396 457.789L133.509 492.763C135.751 494.455 138.552 494.455 140.794 492.763L192.907 457.789C194.588 456.66 195.709 454.404 195.709 452.148V400.25C195.709 397.994 194.588 396.301 192.907 394.609L140.794 359.634Z" stroke="black" stroke-width="1.4" stroke-miterlimit="5.6" stroke-linecap="round" stroke-linejoin="round"/>
<path d="M79.7153 397.429L137.432 436.353L195.149 397.429" stroke="black" stroke-width="1.4" stroke-miterlimit="5.6" stroke-linecap="round" stroke-linejoin="round"/>
<path d="M136.873 435.791V493.329" stroke="black" stroke-width="1.4" stroke-miterlimit="5.6" stroke-linecap="round" stroke-linejoin="round"/>
</svg>
