<svg width="500" height="500" viewBox="0 0 500 500" fill="none" xmlns="http://www.w3.org/2000/svg">
<path d="M250 500C316.304 500 379.893 473.661 426.777 426.777C473.661 379.893 500 316.304 500 250C500 183.696 473.661 120.107 426.777 73.2233C379.893 26.3392 316.304 -1.38261e-05 250 -1.09278e-05C183.696 -8.0296e-06 120.107 26.3392 73.2233 73.2233C26.3392 120.107 -1.38261e-05 183.696 -1.09278e-05 250C-8.0296e-06 316.304 26.3392 379.893 73.2233 426.777C120.107 473.661 183.696 500 250 500V500Z" fill="#ECE7FF"/>
<path d="M452.413 396.351C452.411 401.297 450.444 406.041 446.946 409.538C443.447 413.035 438.703 415 433.756 415H66.8812C61.9344 415 57.1902 413.035 53.6916 409.538C50.1931 406.041 48.2267 401.297 48.2248 396.351V141.399H452.398L452.413 396.351Z" fill="white"/>
<path d="M433.756 85.4375H66.8812C61.9332 85.4375 57.1879 87.4031 53.6891 90.9018C50.1904 94.4006 48.2248 99.1459 48.2248 104.094V141.399H452.398V104.094C452.398 99.1484 450.435 94.4052 446.939 90.9069C443.443 87.4085 438.702 85.4413 433.756 85.4375Z" fill="#005EF8" stroke="#00152B" stroke-width="5" stroke-linecap="round" stroke-linejoin="round"/>
<path d="M66.8812 113.422C66.8812 114.647 67.1225 115.86 67.5913 116.992C68.0601 118.124 68.7472 119.152 69.6134 120.018C70.4796 120.884 71.5079 121.571 72.6397 122.04C73.7714 122.509 74.9844 122.75 76.2094 122.75C77.4344 122.75 78.6474 122.509 79.7791 122.04C80.9109 121.571 81.9392 120.884 82.8054 120.018C83.6716 119.152 84.3587 118.124 84.8275 116.992C85.2963 115.86 85.5376 114.647 85.5376 113.422C85.5376 112.197 85.2963 110.984 84.8275 109.852C84.3587 108.721 83.6716 107.692 82.8054 106.826C81.9392 105.96 80.9109 105.273 79.7791 104.804C78.6474 104.335 77.4344 104.094 76.2094 104.094C74.9844 104.094 73.7714 104.335 72.6397 104.804C71.5079 105.273 70.4796 105.96 69.6134 106.826C68.7472 107.692 68.0601 108.721 67.5913 109.852C67.1225 110.984 66.8812 112.197 66.8812 113.422V113.422Z" fill="white" stroke="#00152B" stroke-width="5" stroke-linecap="round" stroke-linejoin="round"/>
<path d="M104.187 113.422C104.187 115.896 105.169 118.269 106.919 120.018C108.668 121.767 111.041 122.75 113.515 122.75C115.989 122.75 118.362 121.767 120.111 120.018C121.86 118.269 122.843 115.896 122.843 113.422C122.843 110.948 121.86 108.575 120.111 106.826C118.362 105.077 115.989 104.094 113.515 104.094C111.041 104.094 108.668 105.077 106.919 106.826C105.169 108.575 104.187 110.948 104.187 113.422V113.422Z" fill="white" stroke="#00152B" stroke-width="5" stroke-linecap="round" stroke-linejoin="round"/>
<path d="M141.5 113.422C141.5 115.896 142.482 118.269 144.232 120.018C145.981 121.767 148.354 122.75 150.828 122.75C153.302 122.75 155.674 121.767 157.424 120.018C159.173 118.269 160.156 115.896 160.156 113.422C160.156 110.948 159.173 108.575 157.424 106.826C155.674 105.077 153.302 104.094 150.828 104.094C148.354 104.094 145.981 105.077 144.232 106.826C142.482 108.575 141.5 110.948 141.5 113.422Z" fill="white" stroke="#00152B" stroke-width="5" stroke-linecap="round" stroke-linejoin="round"/>
<path d="M452.413 396.351C452.411 401.297 450.444 406.041 446.946 409.538C443.447 413.035 438.703 415 433.756 415H66.8812C61.9344 415 57.1902 413.035 53.6916 409.538C50.1931 406.041 48.2267 401.297 48.2248 396.351V141.399H452.398L452.413 396.351Z" stroke="#00152B" stroke-width="5" stroke-linecap="round" stroke-linejoin="round"/>
<path d="M91.7539 363.702H402.667" stroke="#00152B" stroke-width="5" stroke-linecap="round" stroke-linejoin="round"/>
<path d="M197.461 375.92C197.501 377.579 197.209 379.228 196.602 380.772C195.995 382.315 195.085 383.722 193.926 384.909C192.768 386.096 191.383 387.039 189.854 387.683C188.326 388.327 186.684 388.659 185.025 388.659C183.366 388.659 181.724 388.327 180.196 387.683C178.667 387.039 177.283 386.096 176.124 384.909C174.965 383.722 174.055 382.315 173.448 380.772C172.841 379.228 172.549 377.579 172.589 375.92V351.048C172.667 347.801 174.011 344.713 176.335 342.445C178.659 340.176 181.777 338.906 185.025 338.906C188.273 338.906 191.392 340.176 193.715 342.445C196.039 344.713 197.384 347.801 197.461 351.048V375.92Z" fill="#005EF8" stroke="#00152B" stroke-width="5" stroke-linecap="round" stroke-linejoin="round"/>
<path d="M296.431 259.661C297.399 259.103 298.204 258.299 298.763 257.331C299.322 256.363 299.617 255.264 299.617 254.146C299.617 253.028 299.322 251.93 298.763 250.961C298.204 249.993 297.399 249.189 296.431 248.631L228.858 209.587C227.89 209.028 226.792 208.734 225.675 208.734C224.557 208.734 223.459 209.028 222.491 209.587C221.523 210.146 220.719 210.95 220.161 211.918C219.602 212.886 219.308 213.984 219.308 215.102V293.154C219.308 294.272 219.602 295.37 220.161 296.338C220.719 297.306 221.523 298.11 222.491 298.669C223.459 299.228 224.557 299.522 225.675 299.523C226.792 299.523 227.89 299.228 228.858 298.67L296.431 259.661Z" fill="#005EF8"/>
<path d="M296.431 259.661C297.399 259.103 298.204 258.299 298.763 257.331C299.322 256.363 299.617 255.264 299.617 254.146C299.617 253.028 299.322 251.93 298.763 250.961C298.204 249.993 297.399 249.189 296.431 248.631L228.858 209.587C227.89 209.028 226.792 208.734 225.675 208.734C224.557 208.734 223.459 209.028 222.491 209.587C221.523 210.146 220.719 210.95 220.161 211.918C219.602 212.886 219.308 213.984 219.308 215.102V293.154C219.308 294.272 219.602 295.37 220.161 296.338C220.719 297.306 221.523 298.11 222.491 298.669C223.459 299.228 224.557 299.522 225.675 299.523C226.792 299.523 227.89 299.228 228.858 298.67L296.431 259.661Z" stroke="#00152B" stroke-width="5" stroke-linecap="round" stroke-linejoin="round"/>
</svg>
