<svg width="500" height="500" viewBox="0 0 500 500" fill="none" xmlns="http://www.w3.org/2000/svg">
<path d="M0 250C0 316.304 26.3392 379.893 73.2233 426.777C120.107 473.661 183.696 500 250 500C316.304 500 379.893 473.661 426.777 426.777C473.661 379.893 500 316.304 500 250C500 183.696 473.661 120.107 426.777 73.2233C379.893 26.3392 316.304 0 250 0C183.696 0 120.107 26.3392 73.2233 73.2233C26.3392 120.107 0 183.696 0 250V250Z" fill="#ECE7FF"/>
<path d="M114.583 40.4854C114.583 30.4879 118.555 20.8998 125.624 13.8304C132.694 6.76109 142.282 2.78957 152.279 2.78957H347.734C352.684 2.78671 357.587 3.7596 362.16 5.65262C366.734 7.54563 370.89 10.3216 374.391 13.8219C377.891 17.3222 380.667 21.4781 382.56 26.052C384.453 30.6259 385.426 35.528 385.423 40.4782V459.698C385.424 464.648 384.45 469.549 382.556 474.121C380.662 478.694 377.886 482.848 374.386 486.348C370.886 489.847 366.731 492.622 362.158 494.515C357.585 496.408 352.684 497.382 347.734 497.38H152.279C142.285 497.378 132.701 493.407 125.634 486.341C118.567 479.275 114.594 469.692 114.591 459.698L114.583 40.4854Z" fill="white"/>
<path d="M114.583 40.4854C114.583 30.4879 118.555 20.8998 125.624 13.8304C132.694 6.76109 142.282 2.78957 152.279 2.78957H347.734C352.684 2.78671 357.587 3.7596 362.16 5.65262C366.734 7.54563 370.89 10.3216 374.391 13.8219C377.891 17.3222 380.667 21.4781 382.56 26.052C384.453 30.6259 385.426 35.528 385.423 40.4782V459.698C385.424 464.648 384.45 469.549 382.556 474.121C380.662 478.694 377.886 482.848 374.386 486.348C370.886 489.847 366.731 492.622 362.158 494.515C357.585 496.408 352.684 497.382 347.734 497.38H152.279C142.285 497.378 132.701 493.407 125.634 486.341C118.567 479.275 114.594 469.692 114.591 459.698L114.583 40.4854Z" stroke="#00152B" stroke-width="2" stroke-linecap="round" stroke-linejoin="round"/>
<path d="M138.139 73.4412H361.875V420.827H138.139V73.4412Z" fill="white"/>
<g clip-path="url(#clip0_7_36)">
<path d="M271.37 266.772C267.645 270.017 262.997 274.056 254.546 274.056H249.506C243.398 274.056 237.843 271.88 233.868 267.929C229.986 264.071 227.847 258.789 227.847 253.056V246.28C227.847 240.547 229.986 235.265 233.868 231.407C237.843 227.456 243.398 225.28 249.506 225.28H254.546C262.997 225.28 267.64 229.319 271.37 232.564C275.237 235.929 278.578 238.835 287.479 238.835C288.836 238.835 290.192 238.729 291.532 238.516C291.532 238.491 291.515 238.467 291.504 238.441C290.97 237.142 290.344 235.881 289.63 234.667L283.679 224.549C280.996 219.988 277.137 216.201 272.49 213.567C267.843 210.934 262.572 209.547 257.206 209.547H245.302C239.936 209.547 234.664 210.934 230.017 213.567C225.37 216.201 221.511 219.988 218.828 224.549L212.877 234.667C210.194 239.228 208.782 244.402 208.782 249.668C208.782 254.934 210.194 260.108 212.877 264.669L218.828 274.787C221.512 279.348 225.371 283.135 230.018 285.768C234.665 288.401 239.936 289.787 245.302 289.787H257.206C262.572 289.787 267.843 288.401 272.49 285.768C277.137 283.135 280.996 279.348 283.679 274.787L289.63 264.669C290.344 263.455 290.97 262.194 291.504 260.895C291.504 260.869 291.524 260.845 291.532 260.82C290.192 260.607 288.836 260.501 287.479 260.501C278.578 260.501 275.237 263.407 271.37 266.772Z" fill="#006BFF"/>
<path d="M254.546 231.418H249.507C240.212 231.418 234.103 237.934 234.103 246.276V253.052C234.103 261.394 240.212 267.91 249.507 267.91H254.546C268.092 267.91 267.036 254.362 287.479 254.362C289.417 254.36 291.351 254.533 293.257 254.88C293.877 251.433 293.877 247.906 293.257 244.458C291.351 244.806 289.417 244.981 287.479 244.979C267.029 244.977 268.092 231.418 254.546 231.418Z" fill="#006BFF"/>
<path d="M305.006 259.832C301.521 257.333 297.504 255.642 293.257 254.886C293.257 254.921 293.246 254.955 293.239 254.987C292.875 256.986 292.303 258.943 291.533 260.828C295.041 261.361 298.371 262.706 301.246 264.751C301.246 264.781 301.228 264.811 301.217 264.843C299.588 270.036 297.126 274.942 293.923 279.374C290.757 283.766 286.913 287.646 282.529 290.875C271.917 298.711 258.671 302.302 245.465 300.925C232.259 299.547 220.078 293.302 211.382 283.452C202.685 273.602 198.12 260.88 198.609 247.856C199.098 234.831 204.605 222.473 214.017 213.278C220.411 207.007 228.347 202.464 237.056 200.089C245.766 197.715 254.952 197.589 263.726 199.724C272.499 201.859 280.562 206.183 287.131 212.276C293.701 218.369 298.556 226.025 301.224 234.501C301.235 234.534 301.244 234.564 301.252 234.594C298.375 236.639 295.044 237.983 291.533 238.514C292.303 240.401 292.875 242.359 293.242 244.359C293.242 244.392 293.242 244.424 293.257 244.454C297.505 243.701 301.522 242.009 305.006 239.508C308.356 237.076 307.707 234.327 307.197 232.701C299.815 209.164 277.49 192.063 251.093 192.063C218.679 192.063 192.401 217.854 192.401 249.667C192.401 281.48 218.679 307.273 251.093 307.273C277.49 307.273 299.815 290.172 307.186 266.641C307.707 265.015 308.356 262.267 305.006 259.832Z" fill="#006BFF"/>
<path d="M291.533 238.514C290.192 238.726 288.837 238.833 287.479 238.833C278.579 238.833 275.237 235.927 271.37 232.562C267.645 229.317 262.997 225.278 254.546 225.278H249.507C243.398 225.278 237.843 227.454 233.868 231.405C229.986 235.263 227.847 240.544 227.847 246.278V253.054C227.847 258.787 229.986 264.069 233.868 267.927C237.843 271.878 243.398 274.054 249.507 274.054H254.546C262.997 274.054 267.64 270.015 271.37 266.77C275.237 263.404 278.579 260.499 287.479 260.499C288.837 260.499 290.192 260.605 291.533 260.817C292.303 258.933 292.875 256.976 293.239 254.977C293.239 254.944 293.253 254.91 293.257 254.875C291.351 254.529 289.417 254.356 287.479 254.357C267.029 254.357 268.092 267.906 254.546 267.906H249.507C240.212 267.906 234.103 261.389 234.103 253.048V246.28C234.103 237.938 240.212 231.422 249.507 231.422H254.546C268.092 231.422 267.036 244.97 287.479 244.97C289.417 244.972 291.351 244.798 293.257 244.45C293.257 244.42 293.257 244.387 293.242 244.355C292.875 242.356 292.302 240.399 291.533 238.514V238.514Z" fill="#0AE9EF"/>
<path d="M291.533 238.514C290.192 238.726 288.837 238.833 287.479 238.833C278.579 238.833 275.237 235.927 271.37 232.562C267.645 229.317 262.997 225.278 254.546 225.278H249.507C243.398 225.278 237.843 227.454 233.868 231.405C229.986 235.263 227.847 240.544 227.847 246.278V253.054C227.847 258.787 229.986 264.069 233.868 267.927C237.843 271.878 243.398 274.054 249.507 274.054H254.546C262.997 274.054 267.64 270.015 271.37 266.77C275.237 263.404 278.579 260.499 287.479 260.499C288.837 260.499 290.192 260.605 291.533 260.817C292.303 258.933 292.875 256.976 293.239 254.977C293.239 254.944 293.253 254.91 293.257 254.875C291.351 254.529 289.417 254.356 287.479 254.357C267.029 254.357 268.092 267.906 254.546 267.906H249.507C240.212 267.906 234.103 261.389 234.103 253.048V246.28C234.103 237.938 240.212 231.422 249.507 231.422H254.546C268.092 231.422 267.036 244.97 287.479 244.97C289.417 244.972 291.351 244.798 293.257 244.45C293.257 244.42 293.257 244.387 293.242 244.355C292.875 242.356 292.302 240.399 291.533 238.514V238.514Z" fill="#0AE9EF"/>
</g>
<path d="M138.139 73.4412H361.875V420.827H138.139V73.4412Z" stroke="#00152B" stroke-width="2" stroke-linecap="round" stroke-linejoin="round"/>
<path d="M238.233 38.119H302.997" stroke="#00152B" stroke-width="2" stroke-linecap="round" stroke-linejoin="round"/>
<path d="M211.723 38.1191C211.723 39.8652 211.205 41.572 210.235 43.0238C209.265 44.4755 207.886 45.6069 206.272 46.2748C204.659 46.9426 202.884 47.117 201.171 46.7758C199.459 46.4347 197.886 45.5933 196.652 44.3581C195.418 43.1229 194.578 41.5494 194.238 39.8367C193.898 38.1239 194.074 36.3489 194.743 34.7361C195.412 33.1233 196.545 31.7453 197.997 30.7762C199.45 29.8072 201.157 29.2907 202.903 29.2922C204.063 29.2902 205.211 29.5173 206.282 29.9603C207.354 30.4033 208.327 31.0535 209.147 31.8737C209.966 32.6938 210.615 33.6677 211.058 34.7394C211.5 35.8112 211.726 36.9597 211.723 38.1191V38.1191Z" fill="#00152B"/>
<path d="M232.36 459.096C232.36 461.413 232.817 463.708 233.703 465.849C234.59 467.99 235.89 469.935 237.529 471.574C239.167 473.213 241.113 474.512 243.254 475.399C245.395 476.286 247.689 476.742 250.007 476.742C252.324 476.742 254.619 476.286 256.76 475.399C258.901 474.512 260.846 473.213 262.485 471.574C264.123 469.935 265.423 467.99 266.31 465.849C267.197 463.708 267.653 461.413 267.653 459.096C267.653 456.778 267.197 454.484 266.31 452.343C265.423 450.202 264.123 448.256 262.485 446.618C260.846 444.979 258.901 443.679 256.76 442.793C254.619 441.906 252.324 441.449 250.007 441.449C247.689 441.449 245.395 441.906 243.254 442.793C241.113 443.679 239.167 444.979 237.529 446.618C235.89 448.256 234.59 450.202 233.703 452.343C232.817 454.484 232.36 456.778 232.36 459.096V459.096Z" fill="white" stroke="#00152B" stroke-width="2" stroke-linecap="round" stroke-linejoin="round"/>
<defs>
<clipPath id="clip0_7_36">
<rect width="115.21" height="115.21" fill="white" transform="translate(192.401 192.063)"/>
</clipPath>
</defs>
</svg>
